HIERARCHY
ROOT hip
{
  OFFSET 321.944 23.4767 -21.8397
  CHANNELS 6 Xposition Yposition Zposition Zrotation Xrotation Yrotation
  JOINT abdomen
  {
    OFFSET 0 20.6881 -0.73152
    CHANNELS 3 Zrotation Xrotation Yrotation
    JOINT chest
    {
      OFFSET 0 11.7043 -0.48768
      CHANNELS 3 Zrotation Xrotation Yrotation
      JOINT neck
      {
        OFFSET 0 22.1894 -2.19456
        CHANNELS 3 Zrotation Xrotation Yrotation
        JOINT head
        {
          OFFSET -0.24384 7.07133 1.2192
          CHANNELS 3 Zrotation Xrotation Yrotation
          JOINT leftEye
          {
            OFFSET 4.14528 8.04674 8.04672
            CHANNELS 3 Zrotation Xrotation Yrotation
            End Site
            {
              OFFSET 1 0 0
            }
          }
          JOINT rightEye
          {
            OFFSET -3.6576 8.04674 8.04672
            CHANNELS 3 Zrotation Xrotation Yrotation
            End Site
            {
              OFFSET 1 0 0
            }
          }
        }
      }
      JOINT rCollar
      {
        OFFSET -2.68224 19.2634 -4.8768
        CHANNELS 3 Zrotation Xrotation Yrotation
        JOINT rShldr
        {
          OFFSET -8.77824 -1.95073 1.46304
          CHANNELS 3 Zrotation Xrotation Yrotation
          JOINT rForeArm
          {
            OFFSET -28.1742 -1.7115 0.48768
            CHANNELS 3 Zrotation Xrotation Yrotation
            JOINT rHand
            {
              OFFSET -22.5879 0.773209 7.07136
              CHANNELS 3 Zrotation Xrotation Yrotation
              JOINT rThumb1
              {
                OFFSET -1.2192 -0.487915 3.41376
                CHANNELS 3 Zrotation Xrotation Yrotation
                JOINT rThumb2
                {
                  OFFSET -3.37035 -0.52449 3.41376
                  CHANNELS 3 Zrotation Xrotation Yrotation
                  End Site
                  {
                    OFFSET -1.78271 -1.18214 1.43049
                  }
                }
              }
              JOINT rIndex1
              {
                OFFSET -7.75947 0.938293 5.60832
                CHANNELS 3 Zrotation Xrotation Yrotation
                JOINT rIndex2
                {
                  OFFSET -2.54057 -0.884171 1.56538
                  CHANNELS 3 Zrotation Xrotation Yrotation
                  End Site
                  {
                    OFFSET -1.62519 -0.234802 1.16502
                  }
                }
              }
              JOINT rMid1
              {
                OFFSET -8.24714 1.18213 3.41376
                CHANNELS 3 Zrotation Xrotation Yrotation
                JOINT rMid2
                {
                  OFFSET -3.10165 -0.590103 1.0647
                  CHANNELS 3 Zrotation Xrotation Yrotation
                  End Site
                  {
                    OFFSET -2.48547 -0.328903 0.83742
                  }
                }
              }
              JOINT rRing1
              {
                OFFSET -8.82822 0.546677 1.51678
                CHANNELS 3 Zrotation Xrotation Yrotation
                JOINT rRing2
                {
                  OFFSET -2.60934 -0.819778 -0.0198488
                  CHANNELS 3 Zrotation Xrotation Yrotation
                  End Site
                  {
                    OFFSET -2.33842 -0.294052 0.168128
                  }
                }
              }
              JOINT rPinky1
              {
                OFFSET -8.27202 -0.0477905 -0.4584
                CHANNELS 3 Zrotation Xrotation Yrotation
                JOINT rPinky2
                {
                  OFFSET -1.82734 -0.647385 -0.700984
                  CHANNELS 3 Zrotation Xrotation Yrotation
                  End Site
                  {
                    OFFSET -1.69225 -0.51767 -0.607171
                  }
                }
              }
            }
          }
        }
      }
      JOINT lCollar
      {
        OFFSET 2.68224 19.2634 -4.8768
        CHANNELS 3 Zrotation Xrotation Yrotation
        JOINT lShldr
        {
          OFFSET 8.77824 -1.95073 1.46304
          CHANNELS 3 Zrotation Xrotation Yrotation
          JOINT lForeArm
          {
            OFFSET 28.1742 -1.7115 0.48768
            CHANNELS 3 Zrotation Xrotation Yrotation
            JOINT lHand
            {
              OFFSET 22.5879 0.773209 7.07136
              CHANNELS 3 Zrotation Xrotation Yrotation
              JOINT lThumb1
              {
                OFFSET 1.2192 -0.487915 3.41376
                CHANNELS 3 Zrotation Xrotation Yrotation
                JOINT lThumb2
                {
                  OFFSET 3.37035 -0.52449 3.41376
                  CHANNELS 3 Zrotation Xrotation Yrotation
                  End Site
                  {
                    OFFSET 1.78271 -1.18214 1.43049
                  }
                }
              }
              JOINT lIndex1
              {
                OFFSET 7.75947 0.938293 5.60832
                CHANNELS 3 Zrotation Xrotation Yrotation
                JOINT lIndex2
                {
                  OFFSET 2.54057 -0.884171 1.56538
                  CHANNELS 3 Zrotation Xrotation Yrotation
                  End Site
                  {
                    OFFSET 1.62519 -0.234802 1.16502
                  }
                }
              }
              JOINT lMid1
              {
                OFFSET 8.24714 1.18213 3.41376
                CHANNELS 3 Zrotation Xrotation Yrotation
                JOINT lMid2
                {
                  OFFSET 3.10165 -0.590103 1.0647
                  CHANNELS 3 Zrotation Xrotation Yrotation
                  End Site
                  {
                    OFFSET 2.48547 -0.328903 0.83742
                  }
                }
              }
              JOINT lRing1
              {
                OFFSET 8.82822 0.546677 1.51678
                CHANNELS 3 Zrotation Xrotation Yrotation
                JOINT lRing2
                {
                  OFFSET 2.60934 -0.819778 -0.0198488
                  CHANNELS 3 Zrotation Xrotation Yrotation
                  End Site
                  {
                    OFFSET 2.33842 -0.294052 0.168128
                  }
                }
              }
              JOINT lPinky1
              {
                OFFSET 8.27202 -0.0477905 -0.4584
                CHANNELS 3 Zrotation Xrotation Yrotation
                JOINT lPinky2
                {
                  OFFSET 1.82734 -0.647385 -0.700984
                  CHANNELS 3 Zrotation Xrotation Yrotation
                  End Site
                  {
                    OFFSET 1.69225 -0.51767 -0.607171
                  }
                }
              }
            }
          }
        }
      }
    }
  }
  JOINT rButtock
  {
    OFFSET -8.77824 4.35084 1.2192
    CHANNELS 3 Zrotation Xrotation Yrotation
    JOINT rThigh
    {
      OFFSET 0 -1.70687 -2.19456
      CHANNELS 3 Zrotation Xrotation Yrotation
      JOINT rShin
      {
        OFFSET 0 -36.8199 0.73152
        CHANNELS 3 Zrotation Xrotation Yrotation
        JOINT rFoot
        {
          OFFSET 0.73152 -45.1104 -5.12064
          CHANNELS 3 Zrotation Xrotation Yrotation
          End Site
          {
            OFFSET -1.1221 -3.69964 12.103
          }
        }
      }
    }
  }
  JOINT lButtock
  {
    OFFSET 8.77824 4.35084 1.2192
    CHANNELS 3 Zrotation Xrotation Yrotation
    JOINT lThigh
    {
      OFFSET 0 -1.70687 -2.19456
      CHANNELS 3 Zrotation Xrotation Yrotation
      JOINT lShin
      {
        OFFSET 0 -36.8199 0.73152
        CHANNELS 3 Zrotation Xrotation Yrotation
        JOINT lFoot
        {
          OFFSET -0.73152 -45.1104 -5.12064
          CHANNELS 3 Zrotation Xrotation Yrotation
          End Site
          {
            OFFSET 1.1221 -3.69964 12.103
          }
        }
      }
    }
  }
}
MOTION
Frames:	4
Frame Time:	0.00833333
122.318 16.5707 -10.4745 2.10484 1.13941 -76.1812 -4.20245 11.0942 21.7119 -7.15429 -3.17236 4.61581 -1.50949 -14.9762 -3.05484 1.34217 5.37381 -5.28578 -0 0 0 -0 0 0 8.0029e-014 -5.0744e-014 -1.0822e-013 73.5928 54.5697 -1.15559 -23.9025 -49.5232 103.593 -0.52583 -20.1654 -2.95837 2.1357e-010 -1.9875e-009 -1.66918e-009 3.96821e-010 -3.44803e-009 -2.88509e-009 2.13579e-010 -1.98751e-009 -1.6692e-009 7.73091 5.47488 0.417314 2.1357e-010 -1.98751e-009 -1.66919e-009 2.90554 0.965183 0.102902 2.13577e-010 -1.9875e-009 -1.66919e-009 10.2786 0.731801 0.0259123 2.13567e-010 -1.9875e-009 -1.66918e-009 2.22167 -0.733487 -0.20892 7.99494e-014 -5.07517e-014 -1.0841e-013 -123.134 41.0686 79.4323 27.8027 -41.3529 -86.3784 0.725198 -23.4442 3.49411 6.02253e-010 -3.98693e-010 2.11355e-010 1.03822e-009 -6.92245e-010 3.78782e-010 6.02248e-010 -3.98691e-010 2.11368e-010 -7.73091 5.47488 -0.417314 6.02254e-010 -3.98692e-010 2.11355e-010 -2.90554 0.965183 -0.102902 6.02244e-010 -3.98692e-010 2.11353e-010 -10.2786 0.731801 -0.0259123 6.0226e-010 -3.98693e-010 2.11343e-010 -2.22167 -0.733487 0.20892 -2.03217e-016 0 -3.88251e-019 152.658 -5.22997 -166.694 -7.87364 66.0869 -9.08962 23.127 10.8965 176.679 2.03217e-016 0 3.88251e-019 179.77 -12.3904 149.455 0.890135 0.0960032 4.58508 6.56004 -27.8802 -177.661 
124.995 16.706 -10.4042 1.6637 1.40642 -76.2483 -4.45348 11.3072 21.73 -7.35869 -3.21027 4.44083 -1.58674 -14.6206 -2.97105 2.02117 5.14732 -5.10942 -0 0 0 -0 0 0 1.87227e-013 2.82865e-013 -1.87525e-013 76.4017 55.1978 -4.14971 -24.2226 -49.0889 102.57 -0.548145 -20.5684 -3.02286 5.86043e-010 -2.72588e-009 -2.68929e-009 1.0605e-009 -4.72816e-009 -4.64531e-009 5.86053e-010 -2.72589e-009 -2.68932e-009 7.73091 5.47488 0.417314 5.86043e-010 -2.72589e-009 -2.6893e-009 2.90554 0.965183 0.102902 5.86051e-010 -2.72588e-009 -2.6893e-009 10.2786 0.731801 0.0259123 5.86041e-010 -2.72588e-009 -2.6893e-009 2.22167 -0.733487 -0.20892 1.87169e-013 2.82851e-013 -1.87696e-013 -122.178 42.0943 77.5972 27.859 -41.095 -85.913 0.713556 -23.2673 3.4646 6.86243e-010 -5.1034e-010 2.37247e-010 1.18253e-009 -8.84239e-010 4.24971e-010 6.86239e-010 -5.10338e-010 2.3726e-010 -7.73091 5.47488 -0.417314 6.86244e-010 -5.10339e-010 2.37246e-010 -2.90554 0.965183 -0.102902 6.86234e-010 -5.10339e-010 2.37244e-010 -10.2786 0.731801 -0.0259123 6.86248e-010 -5.10339e-010 2.37233e-010 -2.22167 -0.733487 0.20892 -2.03217e-016 0 -3.88251e-019 144.27 -6.0166 -164.956 -12.7427 69.9157 -8.94711 28.2326 10.2565 175.902 2.03217e-016 0 3.88251e-019 179.867 -13.4959 149.023 1.48578 -0.738347 4.44158 6.49864 -27.4438 -177.451 
127.436 16.4323 -10.3352 1.2238 1.19473 -76.3159 -4.4713 11.5092 21.3928 -7.49011 -3.48257 4.24019 -1.65324 -14.2246 -2.86647 2.68912 4.88643 -4.89469 -0 0 0 -0 0 0 2.83117e-013 5.82387e-013 -2.57291e-013 79.3745 55.6937 -7.30463 -24.5844 -48.5805 101.372 -0.574418 -21.0243 -3.09635 9.42413e-010 -3.26907e-009 -3.555e-009 1.69396e-009 -5.66958e-009 -6.13855e-009 9.42425e-010 -3.26907e-009 -3.55504e-009 7.73091 5.47488 0.417314 9.42412e-010 -3.26907e-009 -3.55501e-009 2.90554 0.965183 0.102902 9.42423e-010 -3.26907e-009 -3.55501e-009 10.2786 0.731801 0.0259123 9.42412e-010 -3.26907e-009 -3.555e-009 2.22167 -0.733487 -0.20892 2.83084e-013 5.82369e-013 -2.57444e-013 -121.065 43.1917 75.5578 27.9251 -40.777 -85.3385 0.6993 -23.049 3.42825 7.26492e-010 -5.98668e-010 2.63089e-010 1.25122e-009 -1.03567e-009 4.69914e-010 7.2649e-010 -5.98666e-010 2.63102e-010 -7.73091 5.47488 -0.417314 7.26493e-010 -5.98667e-010 2.63087e-010 -2.90554 0.965183 -0.102902 7.26485e-010 -5.98667e-010 2.63084e-010 -10.2786 0.731801 -0.0259123 7.26495e-010 -5.98667e-010 2.63074e-010 -2.22167 -0.733487 0.20892 -2.03217e-016 0 -3.88251e-019 140.778 -7.56464 -164.653 -15.6135 73.6215 -8.64323 30.4989 9.52793 176.036 2.03217e-016 0 3.88251e-019 179.904 -14.5831 149.48 1.56989 -0.622407 3.97701 6.38081 -27.0652 -177.339 
129.856 16.181 -10.1933 0.932732 -0.357429 -76.635 -3.54813 11.6151 20.1045 -7.32572 -4.19362 4.01877 -1.63743 -13.826 -2.70689 3.16355 4.60352 -4.60167 -0 0 0 -0 0 0 3.16455e-013 6.81244e-013 -2.75019e-013 82.277 56.0775 -10.4363 -24.9888 -48.0093 99.9848 -0.598369 -21.4277 -3.1618 1.12893e-009 -3.41317e-009 -3.93389e-009 2.02444e-009 -5.91824e-009 -6.7913e-009 1.12894e-009 -3.41318e-009 -3.93394e-009 7.73091 5.47488 0.417314 1.12893e-009 -3.41317e-009 -3.9339e-009 2.90554 0.965183 0.102902 1.12894e-009 -3.41317e-009 -3.9339e-009 10.2786 0.731801 0.0259123 1.12893e-009 -3.41317e-009 -3.9339e-009 2.22167 -0.733487 -0.20892 3.16446e-013 6.81226e-013 -2.75168e-013 -119.83 44.2913 73.3322 27.998 -40.4251 -84.687 0.682942 -22.7974 3.38646 6.75173e-010 -5.38977e-010 2.09535e-010 1.16273e-009 -9.31292e-010 3.76086e-010 6.75172e-010 -5.38975e-010 2.09548e-010 -7.73091 5.47488 -0.417314 6.75175e-010 -5.38976e-010 2.09532e-010 -2.90554 0.965183 -0.102902 6.75167e-010 -5.38976e-010 2.09529e-010 -10.2786 0.731801 -0.0259123 6.75176e-010 -5.38975e-010 2.09519e-010 -2.22167 -0.733487 0.20892 -2.03217e-016 0 -3.88251e-019 150.025 -10.9746 -168.336 -13.3507 76.6514 -7.27248 25.3149 8.78115 178.37 2.03217e-016 0 3.88251e-019 -179.745 -15.2285 152.712 0.345731 1.68931 1.91409 6.4967 -27.07 -177.319 
